Coordinates
version=1
nRows=14
nColumns=46
inDegrees=yes

Units are S.I. units (second, meters, Newtons, ...)
Angles are in degrees.

endheader
time	pelvis_tilt	pelvis_list	pelvis_rotation	pelvis_tx	pelvis_ty	pelvis_tz	bb_angle	bb_tx	bb_ty	bb_tz	hip_flexion_r	hip_adduction_r	hip_rotation_r	knee_angle_r	knee_angle_r_beta	ankle_angle_r	subtalar_angle_r	mtp_angle_r	crank_angle_r	hip_flexion_l	hip_adduction_l	hip_rotation_l	knee_angle_l	knee_angle_l_beta	ankle_angle_l	subtalar_angle_l	mtp_angle_l	crank_angle_l	lumbar_extension	lumbar_bending	lumbar_rotation	arm_flex_r	arm_add_r	arm_rot_r	elbow_flex_r	pro_sup_r	wrist_flex_r	wrist_dev_r	arm_flex_l	arm_add_l	arm_rot_l	elbow_flex_l	pro_sup_l	wrist_flex_l	wrist_dev_l
      5.00000000	    -14.22489694	     -3.31105929	      5.62744766	      0.17120153	      1.08276155	     -0.25878103	      0.00000000	      0.50000000	      0.00000000	      0.25000000	     85.05021920	     -3.42083455	      2.21797419	    121.10919411	      2.11375419	     -6.77717856	    -19.02422287	      0.00000000	      0.00000000	     46.09526967	     -3.03098358	      4.22851787	     41.74104847	      0.72851873	    -10.12868207	    -11.21993083	      0.00000000	      0.00000000	    -68.73613854	      2.86227120	      0.41450633	     73.51427946	    -17.07123306	     11.91801187	     79.13501834	     48.68455898	      0.00000000	      0.00000000	     81.73560904	    -23.58055271	     36.69671774	     77.17963830	     48.19027636	      0.00000000	      0.00000000
      5.00500000	    -14.34678428	     -3.28813460	      5.43070243	      0.17113268	      1.08300821	     -0.25939838	      0.00000000	      0.50000000	      0.00000000	      0.25000000	     86.26217484	     -3.53884395	      2.25500173	    121.56065010	      2.12163359	     -5.75999744	    -19.23483643	      0.00000000	      0.00000000	     45.26475093	     -3.39098002	      3.49456453	     41.14131772	      0.71805145	    -10.50133523	    -10.59146357	      0.00000000	      0.00000000	    -68.69155067	      3.04265792	      0.56423090	     73.78524494	    -16.99734655	     12.15085646	     79.23762319	     48.72777382	      0.00000000	      0.00000000	     81.58354853	    -23.78480123	     36.52516474	     77.20165952	     48.18694024	      0.00000000	      0.00000000
      5.01000000	    -14.35426718	     -3.15662816	      5.08532198	      0.17109204	      1.08350917	     -0.25971101	      0.00000000	      0.50000000	      0.00000000	      0.25000000	     87.32239741	     -3.44015612	      2.49350862	    121.88286712	      2.12725733	     -4.39029392	    -18.47892611	      0.00000000	      0.00000000	     44.36848648	     -3.81015539	      2.51499790	     40.75315965	      0.71127682	    -10.57063032	     -9.62931761	      0.00000000	      0.00000000	    -68.86268825	      3.06392498	      0.30648929	     74.24481284	    -16.86682583	     13.33022472	     79.19544174	     48.87356420	      0.00000000	      0.00000000	     81.06952587	    -24.41402976	     35.58330274	     77.88499177	     48.25977722	      0.00000000	      0.00000000
      5.01500000	    -14.48121346	     -3.15285010	      4.78758736	      0.17094670	      1.08402876	     -0.26010646	      0.00000000	      0.50000000	      0.00000000	      0.25000000	     88.41508422	     -3.35965069	      2.53920553	    121.94592023	      2.12835782	     -3.58398841	    -18.44634975	      0.00000000	      0.00000000	     43.73234410	     -4.22682820	      1.74550320	     40.53429163	      0.70745685	    -10.86569118	     -9.15747105	      0.00000000	      0.00000000	    -68.89647767	      3.21556845	      0.33529565	     74.68402305	    -16.61885278	     13.92702244	     79.11127769	     48.94222431	      0.00000000	      0.00000000	     80.76397134	    -24.87278856	     35.12828284	     78.15685216	     48.29718505	      0.00000000	      0.00000000
      5.02000000	    -14.49326033	     -3.15895584	      4.69338665	      0.17083835	      1.08473123	     -0.26085098	      0.00000000	      0.50000000	      0.00000000	      0.25000000	     89.33438341	     -3.54796491	      2.50824620	    121.88436769	      2.12728352	     -3.01986574	    -18.58325395	      0.00000000	      0.00000000	     43.10506759	     -4.47503046	      1.22916026	     40.51637816	      0.70714420	    -11.18428342	     -8.80471190	      0.00000000	      0.00000000	    -69.04804145	      3.48470919	      0.46272472	     75.05546923	    -16.52387516	     14.06500840	     79.15772059	     48.96576176	      0.00000000	      0.00000000	     80.69580259	    -25.04464639	     34.98088111	     78.19612719	     48.29923855	      0.00000000	      0.00000000
      5.02500000	    -14.55799248	     -3.20179023	      4.42018429	      0.17052734	      1.08550265	     -0.26142409	      0.00000000	      0.50000000	      0.00000000	      0.25000000	     90.11698007	     -3.46418918	      2.53448094	    121.55799561	      2.12158726	     -2.25065822	    -18.44749610	      0.00000000	      0.00000000	     42.65473282	     -4.84808124	      0.66299349	     40.72677736	      0.71081636	    -11.45308986	     -8.49102565	      0.00000000	      0.00000000	    -69.21423580	      3.62933692	      0.59963870	     75.53065801	    -16.37353482	     14.39601851	     79.18693035	     49.00643471	      0.00000000	      0.00000000	     80.63454023	    -25.35501695	     34.70368474	     78.29378503	     48.30212894	      0.00000000	      0.00000000
      5.03000000	    -14.55822485	     -3.28029023	      4.14195640	      0.17030579	      1.08637682	     -0.26181802	      0.00000000	      0.50000000	      0.00000000	      0.25000000	     90.69467466	     -3.32540170	      2.51653206	    121.08977907	      2.11341534	     -1.28802354	    -18.21576205	      0.00000000	      0.00000000	     42.28810225	     -5.29402357	      0.06730200	     41.21191705	      0.71928364	    -11.68938168	     -8.24713113	      0.00000000	      0.00000000	    -69.43838475	      3.81608269	      0.76222444	     76.11918643	    -16.19050840	     14.81276649	     79.15863528	     49.04521626	      0.00000000	      0.00000000	     80.57020734	    -25.69764091	     34.35623837	     78.44540783	     48.30858940	      0.00000000	      0.00000000
      5.03500000	    -14.54563801	     -3.38285625	      3.89659861	      0.17005024	      1.08737816	     -0.26232773	      0.00000000	      0.50000000	      0.00000000	      0.25000000	     91.15360249	     -3.24301213	      2.44460397	    120.46570022	      2.10252310	     -0.47304167	    -17.85867499	      0.00000000	      0.00000000	     41.99647718	     -5.67269168	     -0.32331050	     41.83795474	      0.73021006	    -11.80880081	     -8.16305946	      0.00000000	      0.00000000	    -69.68429103	      3.98067888	      0.93530257	     76.64420171	    -16.01931701	     15.23751703	     79.01704551	     49.06692048	      0.00000000	      0.00000000	     80.48917672	    -26.03933387	     34.00048482	     78.64388951	     48.32212332	      0.00000000	      0.00000000
      5.04000000	    -14.53053761	     -3.53537148	      3.65791183	      0.16981276	      1.08841479	     -0.26302761	      0.00000000	      0.50000000	      0.00000000	      0.25000000	     91.42703315	     -3.19732337	      2.31870483	    119.71632567	      2.08944405	      0.70835840	    -17.21640892	      0.00000000	      0.00000000	     41.82040286	     -6.02786109	     -0.52925966	     42.67048904	      0.74474053	    -11.86546680	     -8.13357503	      0.00000000	      0.00000000	    -69.95030090	      4.39610137	      0.49823955	     78.01864009	    -15.19640693	     17.01133377	     77.48096223	     49.05329852	      0.00000000	      0.00000000	     79.52048700	    -27.36942104	     32.44060082	     80.24595902	     48.55789288	      0.00000000	      0.00000000
      5.04500000	    -14.47562535	     -3.55484780	      3.42105754	      0.16962254	      1.08946448	     -0.26348727	      0.00000000	      0.50000000	      0.00000000	      0.25000000	     91.55284237	     -3.04692475	      2.30507018	    118.88339191	      2.07490661	      1.66130101	    -17.25401771	      0.00000000	      0.00000000	     41.70074791	     -6.26030622	     -0.75697589	     43.69932865	      0.76269717	    -12.08619779	     -8.38235571	      0.00000000	      0.00000000	    -70.24887942	      4.45819207	      0.62575444	     78.42249575	    -15.05683898	     17.03162843	     77.57267076	     49.06913922	      0.00000000	      0.00000000	     79.58252138	    -27.50110732	     32.31943331	     80.20452711	     48.54545073	      0.00000000	      0.00000000
      5.05000000	    -14.39695979	     -3.75997207	      3.08644514	      0.16950104	      1.09068064	     -0.26383968	      0.00000000	      0.50000000	      0.00000000	      0.25000000	     91.43843927	     -2.75039231	      2.09748986	    117.86655784	      2.05715951	      2.91183958	    -16.91234834	      0.00000000	      0.00000000	     41.68172246	     -6.72342973	     -0.94466214	     44.93341809	      0.78423609	    -12.22441000	     -8.82080130	      0.00000000	      0.00000000	    -70.63241103	      4.61370445	      0.97295764	     78.98534642	    -14.79288194	     17.21839823	     77.63698338	     49.09573666	      0.00000000	      0.00000000	     79.64149894	    -27.75959890	     32.05071491	     80.21041265	     48.52958360	      0.00000000	      0.00000000
      5.05500000	    -14.31818882	     -3.98912135	      2.82268089	      0.16932538	      1.09183629	     -0.26460649	      0.00000000	      0.50000000	      0.00000000	      0.25000000	     91.15771328	     -2.58282821	      1.92668671	    116.71687001	      2.03709367	      4.57888185	    -15.77513370	      0.00000000	      0.00000000	     41.76027998	     -7.03441428	     -0.76406798	     46.31390495	      0.80833013	    -12.24353521	     -9.14710203	      0.00000000	      0.00000000	    -71.00416695	      5.00853312	      1.07093875	     80.12162574	    -14.35876064	     18.59811514	     76.72756391	     49.10784362	      0.00000000	      0.00000000	     78.95775377	    -28.41143193	     30.75612095	     81.10340685	     48.62811309	      0.00000000	      0.00000000
      5.06000000	    -14.27474710	     -4.21714212	      2.52433182	      0.16931288	      1.09305896	     -0.26523518	      0.00000000	      0.50000000	      0.00000000	      0.25000000	     90.74974449	     -2.41291840	      1.60564414	    115.39250740	      2.01397919	      5.85690766	    -15.50805119	      0.00000000	      0.00000000	     41.94519206	     -7.40020298	     -0.72656677	     47.81953432	      0.83460832	    -12.33759206	     -9.80960507	      0.00000000	      0.00000000	    -71.36842634	      5.19168006	      1.32496856	     80.70605768	    -14.04096242	     18.79506779	     76.77836701	     49.13512991	      0.00000000	      0.00000000	     78.90859301	    -28.66383420	     30.46521717	     81.18808731	     48.63126162	      0.00000000	      0.00000000
      5.06500000	    -14.23761257	     -4.41275674	      2.26311875	      0.16924842	      1.09411032	     -0.26599092	      0.00000000	      0.50000000	      0.00000000	      0.25000000	     90.20082470	     -2.26511187	      1.36681248	    113.92405495	      1.98834986	      7.21930543	    -15.09330682	      0.00000000	      0.00000000	     42.24418902	     -7.65132649	     -0.52854108	     49.51994102	      0.86428602	    -12.35739584	    -10.49382195	      0.00000000	      0.00000000	    -71.67951621	      5.41544218	      1.58646393	     81.27648198	    -13.74952104	     19.12034412	     76.75830969	     49.15289423	      0.00000000	      0.00000000	     78.76982707	    -28.88467415	     30.05133185	     81.36425187	     48.63086728	      0.00000000	      0.00000000
